<?xml version="1.0" encoding="UTF-8"?>
<!-- Generator: Adobe Illustrator 13.0.0, SVG Export Plug-In . SVG Version: 6.00 Build 14948)  -->
<svg width="207.47" height="286.5" enable-background="new 0 0 300 300" version="1.1" viewBox="0 0 207.47 286.5" xml:space="preserve" xmlns="http://www.w3.org/2000/svg">

<path d="m27.868 260.34-2.433-14.412c-0.694-4.154-1.581-10.646-2.257-15.143h-0.264c-0.711 4.531-1.704 11.207-2.433 15.178l-2.618 14.377zm-11.312 9.391-3.162 15.994h-11.681l14.571-66.541h14.316l13.236 66.541h-11.742l-3.092-15.994z"/>
<path d="m70.423 256c0-0.887 0-1.924-0.176-2.873-0.465-3.285-2.213-6.244-5.024-6.244-4.822 0-6.596 6.947-6.596 15.072 0 9.336 2.529 14.65 6.429 14.65 1.783 0 3.838-0.914 4.954-4.832 0.272-0.781 0.413-1.826 0.413-3.047zm11.989-38.584v54.508c0 4.32 0.22 9.635 0.396 13.789h-10.355l-0.676-5.543h-0.246c-1.739 3.418-5.524 6.324-10.048 6.324-9.916 0-14.834-10.943-14.834-24.76 0-16.836 7.333-25.023 15.326-25.023 4.181 0 6.886 2.047 8.248 5.008h0.202v-24.303z"/>
<path d="m107.38 277.3c4.576 0 5.709-8.625 5.709-15.766 0-6.789-1.133-15.635-5.91-15.635-5.06 0-6.123 8.846-6.123 15.635 0 8.195 1.335 15.766 6.218 15.766zm-0.228 9.196c-11.049 0-17.979-8.871-17.979-24.75 0-17.33 8.897-25.033 18.26-25.033 10.9 0 17.733 9.303 17.733 24.752 0 19.85-10.706 25.031-17.917 25.031z"/>
<path d="m143.86 268.5c0 1.203 0.22 2.328 0.475 3.082 1.203 4.033 3.241 5.025 4.874 5.025 4.638 0 6.509-5.877 6.509-15.275 0-8.555-1.977-14.447-6.562-14.447-2.274 0-4.189 2.469-4.848 5.121-0.229 0.834-0.448 2.133-0.448 3.029zm-11.99-51.082h11.989v25.119h0.193c2.362-3.707 5.507-5.824 10.074-5.824 9.038 0 13.579 10.277 13.579 23.715 0 16.979-6.772 26.068-15.547 26.068-4.181 0-6.965-1.854-9.477-6.551h-0.253l-0.667 5.77h-10.294c0.176-3.996 0.403-9.469 0.403-13.789z"/>
<path d="m196.44 257.01c0.062-6.771-1.924-11.516-5.727-11.516-4.339 0-6.184 6.352-6.315 11.516zm-12.086 8.477c0.141 8.721 4.726 11.559 10.417 11.559 3.609 0 6.701-0.801 8.985-1.66l1.616 8.625c-3.18 1.369-8.09 2.23-12.798 2.23-12.867 0-19.894-8.793-19.894-23.811 0-16.117 8.151-25.797 18.796-25.797 10.285 0 15.985 8.555 15.985 22.52 0 3.197-0.132 4.998-0.343 6.402z"/>
<polygon transform="translate(-43.073,-7.771)" points="250.54 191.38 173.84 7.771 250.54 7.771" fill="#ff0000"/>
<polygon transform="translate(-43.073,-7.771)" points="43.073 191.38 119.81 7.771 43.073 7.771" fill="#ff0000"/>
<polygon transform="translate(-43.073,-7.771)" points="163.68 191.37 149.07 154.44 113.29 154.44 146.84 75.427 195.7 191.37" fill="#ff0000"/>
</svg>
